<svg class="t-sociallinks__svg" width="70px" height="70px" viewBox="0 0 100 100" fill="none" xmlns="http://www.w3.org/2000/svg"> <path fill-rule="evenodd" clip-rule="evenodd" d="M50 100c27.614 0 50-22.386 50-50S77.614 0 50 0 0 22.386 0 50s22.386 50 50 50Zm23.567-58.55v.125a24.723 24.723 0 0 1 0 16.85v.125a25.074 25.074 0 0 1-47.087 0v-.125a24.723 24.723 0 0 1 0-16.85v-.125a25.073 25.073 0 0 1 47.087 0ZM35.23 44.985h-4.663a19.608 19.608 0 0 0 0 10.03h4.663a41.946 41.946 0 0 1 0-10.03Zm.903 15.044h-3.51a20.06 20.06 0 0 0 6.017 6.444 30.466 30.466 0 0 1-2.507-6.444Zm-3.51-20.058h3.51a30.465 30.465 0 0 1 2.432-6.444 20.059 20.059 0 0 0-5.942 6.444Zm8.75 20.058a15.896 15.896 0 0 0 6.093 9.277V60.03h-6.093Zm-1.078-5.014h7.17v-10.03h-7.17a36.004 36.004 0 0 0 0 10.03Zm1.078-15.044h6.093v-9.277a15.896 15.896 0 0 0-6.093 9.277Zm22.44 0h3.51a20.06 20.06 0 0 0-6.017-6.444 30.466 30.466 0 0 1 2.508 6.444Zm-5.24 0a15.896 15.896 0 0 0-6.092-9.277v9.277h6.092Zm-6.092 20.058v9.277a15.896 15.896 0 0 0 6.092-9.277h-6.092Zm0-5.014h7.17a36.004 36.004 0 0 0 0-10.03h-7.17v10.03Zm11.408 5.014a30.466 30.466 0 0 1-2.508 6.444A20.06 20.06 0 0 0 67.4 60.03h-3.51Zm.827-5.014h4.664c.87-3.287.87-6.743 0-10.03h-4.664c.203 1.664.304 3.339.301 5.015a40.487 40.487 0 0 1-.3 5.015Z" fill="#ffffff"/></svg>